<?xml version="1.0" encoding="UTF-8"?><svg id="_レイヤー_2" xmlns="http://www.w3.org/2000/svg" viewBox="0 0 53.49 89.49"><defs><style>.cls-1{fill:#fff;stroke-width:0px;}</style></defs><g id="_レイヤー_1-2"><path class="cls-1" d="M4.78,22.68C-.01,25.79-.95,35.51.86,43.43c1.41,6.17,4.41,14.44,9.46,22.23,4.75,7.33,11.39,13.9,16.44,17.7,6.49,4.88,15.75,7.99,20.54,4.88,2.42-1.57,6.02-5.87,6.19-6.64,0,0-2.11-3.26-2.58-3.97l-7.08-10.92c-.53-.81-3.83-.07-5.5.88-2.26,1.28-4.34,4.72-4.34,4.72-1.55.9-2.85,0-5.56-1.25-3.34-1.53-7.08-6.3-10.07-10.62-2.73-4.49-5.55-9.85-5.59-13.53-.03-2.99-.32-4.54,1.13-5.59,0,0,3.99-.5,6.08-2.04,1.55-1.14,3.57-3.85,3.05-4.67l-7.08-10.92c-.46-.71-2.58-3.97-2.58-3.97-.77-.16-6.16,1.37-8.58,2.94Z"/><path class="cls-1" d="M44.93,30.83c2.88-11.75-3.97-23.76-15.54-27.26l.98-3.57c13.54,4.04,21.55,18.09,18.13,31.81l-3.57-.98Z"/><path class="cls-1" d="M37.19,28.71c1.72-7.48-2.61-15.08-9.92-17.41l.98-3.57c9.28,2.87,14.77,12.51,12.52,21.96l-3.57-.98Z"/><path class="cls-1" d="M29.45,26.59c.57-3.21-1.24-6.4-4.3-7.54l.98-3.58c5.02,1.69,8,6.92,6.9,12.1l-3.58-.98Z"/></g></svg>