<svg width="22" height="22" viewBox="0 0 22 22" fill="none" xmlns="http://www.w3.org/2000/svg">
<path d="M9.71667 14.85L16.1792 8.3875L14.8958 7.10417L9.71667 12.2833L7.10417 9.67084L5.82084 10.9542L9.71667 14.85ZM4.58334 19.25C4.07917 19.25 3.64742 19.0703 3.28808 18.711C2.92875 18.3517 2.74939 17.9202 2.75 17.4167V4.58334C2.75 4.07917 2.92967 3.64742 3.289 3.28808C3.64834 2.92875 4.07978 2.74939 4.58334 2.75H17.4167C17.9208 2.75 18.3526 2.92967 18.7119 3.289C19.0713 3.64834 19.2506 4.07978 19.25 4.58334V17.4167C19.25 17.9208 19.0703 18.3526 18.711 18.7119C18.3517 19.0713 17.9202 19.2506 17.4167 19.25H4.58334Z" fill="#95173C"/>
</svg>
